<?xml version="1.0" encoding="utf-8"?>
<!-- Generator: Adobe Illustrator 24.0.2, SVG Export Plug-In . SVG Version: 6.00 Build 0)  -->
<svg version="1.1" id="Layer_1" xmlns="http://www.w3.org/2000/svg" xmlns:xlink="http://www.w3.org/1999/xlink" x="0px" y="0px"
	 viewBox="0 0 500 500" style="enable-background:new 0 0 500 500;" xml:space="preserve">
<style type="text/css">
	.st0{fill:#F1C8D1;}
	.st1{fill:#41464B;}
	.st2{fill:#FFFFFF;}
	.st3{fill:#4DB0CD;}
	.st4{fill:#AFAFAF;}
	.st5{fill:#F7C8D1;}
	.st6{fill:#4CBED8;}
	.st7{fill:#DDF6FE;}
	.st8{fill:#404B90;}
</style>
<g>
	<g>
		<path class="st0" d="M171.26,140.88c0,18.22-14.77,33-33,33s-33-14.77-33-33s14.78-33,33-33S171.26,122.66,171.26,140.88z"/>
		<path class="st1" d="M144.44,205.15h-12.33l-2.79-13.85c-2.88-0.51-5.74-1.28-8.53-2.29l-9.3,10.6l-10.68-6.15l4.52-13.39
			c-2.25-1.9-4.35-3.99-6.25-6.26l-13.37,4.51l-6.15-10.65l10.57-9.34c-1.01-2.78-1.78-5.63-2.29-8.5l-13.81-2.77l-0.02-12.37
			l13.83-2.78c0.51-2.87,1.28-5.72,2.29-8.5l-10.57-9.36l6.15-10.62l13.37,4.5c1.9-2.26,3.99-4.35,6.25-6.26l-4.52-13.39l10.68-6.14
			l9.31,10.59c2.79-1.01,5.64-1.78,8.52-2.29l2.79-13.83h12.33l2.79,13.83c2.87,0.51,5.72,1.28,8.51,2.29l9.31-10.6l10.68,6.14
			l-4.52,13.38c2.27,1.91,4.37,4,6.27,6.26l13.36-4.49l6.14,10.62l-10.55,9.33c1.01,2.79,1.78,5.65,2.3,8.53l13.78,2.77v12.37
			l-13.78,2.75c-0.51,2.88-1.28,5.74-2.3,8.54l10.55,9.31l-6.14,10.65l-13.37-4.51c-1.91,2.26-4.01,4.36-6.27,6.26l4.52,13.37
			l-10.66,6.15l-9.32-10.6c-2.79,1.01-5.64,1.78-8.51,2.29L144.44,205.15z M134.98,201.65h6.6l2.7-13.43l1.21-0.18
			c3.43-0.52,6.83-1.43,10.13-2.72l1.14-0.45l9.04,10.28l5.69-3.29l-4.38-12.97l0.96-0.76c2.75-2.2,5.26-4.7,7.46-7.45l0.77-0.95
			l12.95,4.37l3.28-5.69l-10.23-9.03l0.45-1.14c1.29-3.31,2.21-6.72,2.74-10.16l0.19-1.21l13.35-2.67v-6.63l-13.35-2.69l-0.19-1.21
			c-0.52-3.44-1.44-6.85-2.73-10.15l-0.44-1.14l10.22-9.04l-3.28-5.67l-12.95,4.35l-0.76-0.95c-2.2-2.74-4.71-5.25-7.46-7.45
			l-0.96-0.76l4.38-12.97l-5.71-3.28l-9.03,10.27l-1.14-0.45c-3.3-1.29-6.7-2.2-10.13-2.72l-1.21-0.18l-2.7-13.41h-6.6l-2.7,13.41
			l-1.21,0.18c-3.43,0.52-6.84,1.43-10.14,2.72l-1.14,0.45l-9.03-10.27l-5.71,3.28l4.38,12.98l-0.95,0.77
			c-2.74,2.2-5.25,4.71-7.44,7.44l-0.76,0.95l-12.96-4.36l-3.28,5.67l10.25,9.07l-0.44,1.14c-1.28,3.29-2.2,6.69-2.72,10.11
			l-0.18,1.21l-13.4,2.7l0.01,6.63l13.39,2.68l0.18,1.21c0.52,3.42,1.44,6.83,2.72,10.12l0.45,1.14l-10.25,9.05l3.28,5.69
			l12.96-4.38l0.76,0.96c2.2,2.75,4.71,5.25,7.44,7.44l0.96,0.77l-4.38,12.97l5.71,3.29l9.02-10.28l1.14,0.45
			c3.3,1.29,6.71,2.21,10.14,2.72l1.21,0.18L134.98,201.65z"/>
		<g>
			<polygon class="st2" points="127.8,150.65 118.03,140.89 127.8,131.12 130.27,133.59 122.98,140.89 130.27,148.18 			"/>
			<polygon class="st2" points="148.73,150.65 146.26,148.18 153.55,140.89 146.26,133.59 148.73,131.12 158.5,140.89 			"/>
			
				<rect x="123.53" y="139.13" transform="matrix(0.1735 -0.9848 0.9848 0.1735 -24.4817 252.5953)" class="st2" width="29.45" height="3.5"/>
		</g>
		<g>
			<rect x="136.51" y="99.13" class="st1" width="3.5" height="3.5"/>
			<rect x="136.51" y="179.13" class="st1" width="3.5" height="3.5"/>
			<rect x="96.51" y="139.13" class="st1" width="3.5" height="3.5"/>
			<rect x="176.51" y="139.13" class="st1" width="3.5" height="3.5"/>
		</g>
	</g>
	<g>
		<g>
			<path class="st2" d="M312.47,168.19c-1.28-1.26-2.93-1.9-4.59-1.9H126.76c-1.65,0-3.33,0.65-4.58,1.9
				c-1.27,1.27-1.9,2.92-1.9,4.57v111.83h194.07V172.75C314.36,171.1,313.71,169.45,312.47,168.19z"/>
			<path class="st1" d="M316.11,284.59h-3.5V172.75c0-1.25-0.49-2.43-1.39-3.34c-0.9-0.88-2.09-1.38-3.34-1.38H126.76
				c-1.25,0-2.46,0.51-3.34,1.39c-0.9,0.9-1.39,2.08-1.39,3.33v111.83h-3.5V172.75c0-2.19,0.86-4.25,2.42-5.81
				c1.52-1.53,3.64-2.41,5.82-2.41h181.11c2.18,0,4.25,0.86,5.82,2.41c1.56,1.59,2.41,3.65,2.41,5.81L316.11,284.59L316.11,284.59z"
				/>
			<path class="st1" d="M325.45,303.6H109.2c-2.76,0-5.37-1.08-7.34-3.03c-1.96-1.96-3.04-4.57-3.04-7.35v-10.39h90.54l4.56,5.01
				h46.82l4.56-5.01h90.53v10.39c0,2.8-1.08,5.41-3.05,7.35C330.82,302.52,328.21,303.6,325.45,303.6z M102.32,286.33v6.89
				c0,1.85,0.71,3.57,2.01,4.87c1.31,1.3,3.04,2.01,4.88,2.01h216.25c1.83,0,3.56-0.72,4.87-2.02c1.3-1.28,2.01-3.01,2.01-4.86
				v-6.89h-85.49l-4.56,5.01h-49.92l-4.56-5.01L102.32,286.33L102.32,286.33z"/>
			<g>
				<rect x="118.53" y="291.47" class="st1" width="3.5" height="3.5"/>
				<rect x="125.53" y="291.47" class="st1" width="3.5" height="3.5"/>
				<rect x="132.53" y="291.47" class="st1" width="3.5" height="3.5"/>
			</g>
			<rect x="298.61" y="291.47" class="st1" width="17.5" height="3.5"/>
			<rect x="131.97" y="177.97" class="st3" width="170.72" height="94.95"/>
		</g>
		<g>
			<g>
				<path class="st2" d="M215.77,239.7h-3.5v-28.51h12.17c2.13,0,4.14,0.83,5.65,2.35c1.51,1.51,2.34,3.52,2.34,5.66
					c0,2.13-0.83,4.14-2.34,5.65c-1.52,1.51-3.52,2.35-5.65,2.35h-8.67V239.7z M215.77,223.69h8.67c1.2,0,2.32-0.47,3.18-1.32
					c0.85-0.85,1.32-1.98,1.32-3.18s-0.47-2.33-1.32-3.19c-0.85-0.85-1.98-1.32-3.18-1.32h-8.67V223.69z"/>
				<g>
					<path class="st2" d="M204.09,239.7h-3.5v-20.5c0-1.2-0.47-2.34-1.32-3.19c-0.86-0.85-1.99-1.32-3.19-1.32h-4.17
						c-1.2,0-2.33,0.47-3.18,1.32c-0.85,0.85-1.32,1.98-1.32,3.19v20.5h-3.5v-20.5c0-2.14,0.83-4.15,2.34-5.66
						c1.51-1.51,3.52-2.35,5.65-2.35h4.17c2.13,0,4.14,0.83,5.66,2.35c1.51,1.51,2.34,3.52,2.34,5.66v20.5H204.09z"/>
					<rect x="183.92" y="223.69" class="st2" width="20.17" height="3.5"/>
				</g>
				<g>
					<rect x="243.9" y="212.94" class="st2" width="3.5" height="25.01"/>
					<rect x="240.56" y="211.19" class="st2" width="10.17" height="3.5"/>
					<rect x="240.56" y="236.2" class="st2" width="10.17" height="3.5"/>
				</g>
			</g>
			<g>
				<rect x="260.26" y="223.69" class="st1" width="3.5" height="3.5"/>
				<rect x="170.89" y="223.69" class="st1" width="3.5" height="3.5"/>
			</g>
		</g>
	</g>
	<g>
		<rect x="278.16" y="178.78" class="st2" width="152" height="153"/>
		<g>
			<path class="st1" d="M431.91,333.53h-115.5v-156.5h115.5V333.53z M319.91,330.03h108.5v-149.5h-108.5V330.03z"/>
			<rect x="278.16" y="153.78" class="st4" width="152" height="25"/>
			<path class="st1" d="M431.91,180.53h-155.5v-28.5h155.5V180.53z M279.91,177.03h148.5v-21.5h-148.5V177.03z"/>
			<path class="st1" d="M319.91,333.53h-43.5v-156.5h43.5V333.53z M279.91,330.03h36.5v-149.5h-36.5V330.03z"/>
			<g>
				<rect x="278.16" y="253.53" class="st1" width="40" height="3.5"/>
			</g>
			<g>
				<rect x="286.41" y="164.53" class="st1" width="3.5" height="3.5"/>
				<rect x="293.41" y="164.53" class="st1" width="3.5" height="3.5"/>
				<rect x="300.41" y="164.53" class="st1" width="3.5" height="3.5"/>
				<rect x="307.41" y="164.53" class="st1" width="114.5" height="3.5"/>
			</g>
		</g>
		<g>
			<g>
				<rect x="286.41" y="194.03" class="st1" width="3.5" height="3.5"/>
				<rect x="293.41" y="194.03" class="st1" width="16.5" height="3.5"/>
			</g>
			<g>
				<rect x="286.41" y="187.03" class="st1" width="3.5" height="3.5"/>
				<rect x="293.41" y="187.03" class="st1" width="16.5" height="3.5"/>
			</g>
			<g>
				<rect x="286.41" y="201.03" class="st1" width="3.5" height="3.5"/>
				<rect x="293.41" y="201.03" class="st1" width="16.5" height="3.5"/>
			</g>
			<g>
				<rect x="286.41" y="208.03" class="st1" width="3.5" height="3.5"/>
				<rect x="293.41" y="208.03" class="st1" width="16.5" height="3.5"/>
			</g>
			<g>
				<rect x="286.41" y="215.03" class="st1" width="3.5" height="3.5"/>
				<rect x="293.41" y="215.03" class="st1" width="16.5" height="3.5"/>
			</g>
			<g>
				<rect x="286.41" y="239.53" class="st1" width="3.5" height="3.5"/>
				<rect x="293.41" y="239.53" class="st1" width="16.5" height="3.5"/>
			</g>
			<g>
				<rect x="286.41" y="246.53" class="st1" width="3.5" height="3.5"/>
				<rect x="293.41" y="246.53" class="st1" width="16.5" height="3.5"/>
			</g>
			<g>
				<rect x="286.41" y="285.03" class="st1" width="3.5" height="3.5"/>
				<rect x="293.41" y="285.03" class="st1" width="16.5" height="3.5"/>
			</g>
			<g>
				<rect x="286.41" y="292.03" class="st1" width="3.5" height="3.5"/>
				<rect x="293.41" y="292.03" class="st1" width="16.5" height="3.5"/>
			</g>
			<g>
				<rect x="286.41" y="299.03" class="st1" width="3.5" height="3.5"/>
				<rect x="293.41" y="299.03" class="st1" width="16.5" height="3.5"/>
			</g>
			<g>
				<rect x="286.41" y="306.03" class="st1" width="3.5" height="3.5"/>
				<rect x="293.41" y="306.03" class="st1" width="16.5" height="3.5"/>
			</g>
			<g>
				<rect x="286.41" y="313.03" class="st1" width="3.5" height="3.5"/>
				<rect x="293.41" y="313.03" class="st1" width="16.5" height="3.5"/>
			</g>
			<g>
				<rect x="286.41" y="320.03" class="st1" width="3.5" height="3.5"/>
				<rect x="293.41" y="320.03" class="st1" width="16.5" height="3.5"/>
			</g>
		</g>
		<g>
			<path class="st1" d="M421.91,239.53h-80.5v-24.5h80.5V239.53z M344.91,236.03h73.5v-17.5h-73.5V236.03z"/>
			<g>
				<path class="st1" d="M421.91,295.53h-80.5v-24.5h80.5V295.53z M344.91,292.03h73.5v-17.5h-73.5V292.03z"/>
				<rect x="348.41" y="278.03" class="st5" width="66.5" height="10.5"/>
			</g>
			<path class="st1" d="M393.91,267.53h-52.5v-24.5h52.5V267.53z M344.91,264.03h45.5v-17.5h-45.5V264.03z"/>
			<g>
				<path class="st1" d="M365.91,211.53h-24.5v-24.5h24.5V211.53z M344.91,208.03h17.5v-17.5h-17.5V208.03z"/>
				<path class="st1" d="M393.91,211.53h-24.5v-24.5h24.5V211.53z M372.91,208.03h17.5v-17.5h-17.5V208.03z"/>
				<path class="st1" d="M421.91,211.53h-24.5v-24.5h24.5V211.53z M400.91,208.03h17.5v-17.5h-17.5V208.03z"/>
				<rect x="404.41" y="194.03" class="st6" width="10.5" height="10.5"/>
			</g>
			<g>
				<path class="st1" d="M421.91,323.53h-24.5v-24.5h24.5V323.53z M400.91,320.03h17.5v-17.5h-17.5V320.03z"/>
				
					<rect x="407.9" y="296.43" transform="matrix(0.7071 -0.7071 0.7071 0.7071 -100.1236 380.8403)" class="st1" width="3.5" height="29.7"/>
			</g>
			<g>
				<polygon class="st1" points="343.16,285.03 326.41,285.03 326.41,197.53 343.16,197.53 343.16,201.03 329.91,201.03 
					329.91,281.53 343.16,281.53 				"/>
				<rect x="328.16" y="225.53" class="st1" width="15" height="3.5"/>
				<rect x="328.16" y="253.53" class="st1" width="15" height="3.5"/>
			</g>
			<g>
				<rect x="404.41" y="253.53" class="st1" width="3.5" height="3.5"/>
				<rect x="411.41" y="253.53" class="st1" width="3.5" height="3.5"/>
				<rect x="418.41" y="253.53" class="st1" width="3.5" height="3.5"/>
			</g>
			<g>
				<rect x="326.41" y="313.03" class="st1" width="67.5" height="3.5"/>
				<rect x="326.41" y="320.03" class="st1" width="67.5" height="3.5"/>
				<g>
					<rect x="326.41" y="306.03" class="st1" width="9.78" height="3.5"/>
					<rect x="339.68" y="306.03" class="st1" width="9.77" height="3.5"/>
					<rect x="352.96" y="306.03" class="st1" width="9.78" height="3.5"/>
				</g>
			</g>
		</g>
	</g>
	<g>
		<g>
			<rect x="287.33" y="347.33" class="st1" width="65.74" height="3.5"/>
			<rect x="366.37" y="347.33" class="st1" width="22.71" height="3.5"/>
			<path class="st1" d="M357.26,355.04c-3.28,0-5.95-2.67-5.95-5.95s2.67-5.95,5.95-5.95s5.96,2.67,5.96,5.95
				S360.55,355.04,357.26,355.04z M357.26,346.63c-1.35,0-2.45,1.1-2.45,2.45s1.1,2.45,2.45,2.45s2.46-1.1,2.46-2.45
				S358.62,346.63,357.26,346.63z"/>
		</g>
		<g>
			<rect x="287.33" y="357.84" class="st1" width="49.86" height="3.5"/>
			<rect x="350.49" y="357.84" class="st1" width="38.59" height="3.5"/>
			<path class="st1" d="M341.39,365.55c-3.28,0-5.95-2.67-5.95-5.95s2.67-5.95,5.95-5.95s5.95,2.67,5.95,5.95
				C347.34,362.88,344.67,365.55,341.39,365.55z M341.39,357.14c-1.35,0-2.45,1.1-2.45,2.45s1.1,2.45,2.45,2.45s2.45-1.1,2.45-2.45
				C343.84,358.24,342.74,357.14,341.39,357.14z"/>
		</g>
		<g>
			<rect x="287.33" y="368.35" class="st1" width="15.9" height="3.5"/>
			<rect x="316.54" y="368.35" class="st1" width="72.55" height="3.5"/>
			<path class="st1" d="M307.43,376.05c-3.28,0-5.95-2.67-5.95-5.95s2.67-5.95,5.95-5.95s5.96,2.67,5.96,5.95
				S310.71,376.05,307.43,376.05z M307.43,367.65c-1.35,0-2.45,1.1-2.45,2.45s1.1,2.45,2.45,2.45s2.46-1.1,2.46-2.45
				C309.88,368.75,308.78,367.65,307.43,367.65z"/>
		</g>
		<g>
			<rect x="287.33" y="378.86" class="st1" width="72.74" height="3.5"/>
			<rect x="373.38" y="378.86" class="st1" width="15.7" height="3.5"/>
			<path class="st1" d="M364.27,386.56c-3.28,0-5.95-2.67-5.95-5.95s2.67-5.95,5.95-5.95s5.96,2.67,5.96,5.95
				C370.23,383.89,367.55,386.56,364.27,386.56z M364.27,378.16c-1.35,0-2.45,1.1-2.45,2.45s1.1,2.45,2.45,2.45s2.46-1.1,2.46-2.45
				C366.73,379.26,365.62,378.16,364.27,378.16z"/>
		</g>
	</g>
	<g>
		<path class="st7" d="M227.42,375.44c0,2.75-2.25,5-5,5h-40.1c-2.75,0-5-2.25-5-5v-40.1c0-2.75,2.25-5,5-5h40.1c2.75,0,5,2.25,5,5
			L227.42,375.44L227.42,375.44z"/>
		<g>
			<rect x="211.12" y="364.14" class="st1" width="3.5" height="3.5"/>
			<path class="st1" d="M207.62,367.64h-3.5v-3.5h3.5V367.64z M200.62,367.64h-3.5v-3.5h3.5V367.64z"/>
			<rect x="190.12" y="364.14" class="st1" width="3.5" height="3.5"/>
			<path class="st1" d="M193.62,360.64h-3.5v-3.5h3.5V360.64z M193.62,353.64h-3.5v-3.5h3.5V353.64z"/>
			<rect x="190.12" y="343.14" class="st1" width="3.5" height="3.5"/>
			<path class="st1" d="M207.62,346.64h-3.5v-3.5h3.5V346.64z M200.62,346.64h-3.5v-3.5h3.5V346.64z"/>
			<rect x="211.12" y="343.14" class="st1" width="3.5" height="3.5"/>
			<path class="st1" d="M214.62,360.64h-3.5v-3.5h3.5V360.64z M214.62,353.64h-3.5v-3.5h3.5V353.64z"/>
		</g>
		<g>
			<rect x="233.93" y="315.71" class="st1" width="17.5" height="3.5"/>
			<polygon class="st1" points="222.28,337.95 219.81,335.48 233.2,322.08 251.43,322.08 251.43,325.58 234.65,325.58 			"/>
		</g>
		<g>
			<rect x="153.31" y="391.57" class="st1" width="17.5" height="3.5"/>
			<polygon class="st1" points="171.53,388.7 153.31,388.7 153.31,385.2 170.08,385.2 182.45,372.82 184.93,375.3 			"/>
		</g>
		<g>
			<polygon class="st1" points="251.43,388.7 233.2,388.7 219.81,375.3 222.28,372.82 234.65,385.2 251.43,385.2 			"/>
			<g>
				<rect x="233.93" y="391.57" class="st1" width="3.5" height="3.5"/>
				<rect x="240.92" y="391.57" class="st1" width="3.5" height="3.5"/>
				<rect x="247.92" y="391.57" class="st1" width="3.5" height="3.5"/>
			</g>
		</g>
		<g>
			<polygon class="st1" points="182.45,337.95 170.08,325.58 153.31,325.58 153.31,322.08 171.53,322.08 184.93,335.48 			"/>
			<g>
				<rect x="153.31" y="315.71" class="st1" width="3.5" height="3.5"/>
				<rect x="160.3" y="315.71" class="st1" width="3.51" height="3.5"/>
				<rect x="167.31" y="315.71" class="st1" width="3.5" height="3.5"/>
			</g>
		</g>
	</g>
	<g>
		<g>
			<path class="st1" d="M109.25,349.44h-1.75v-3.5h1.75c0.79,0,1.54-0.31,2.1-0.87s0.87-1.31,0.87-2.1V324.1
				c0-0.79-0.31-1.54-0.87-2.1c-0.56-0.56-1.31-0.87-2.1-0.87h-1.75v-3.5h1.75c1.73,0,3.35,0.67,4.57,1.89s1.9,2.85,1.9,4.58v18.87
				c0,1.73-0.67,3.35-1.9,4.57C112.61,348.77,110.98,349.44,109.25,349.44z"/>
			<path class="st1" d="M85.52,349.44h-1.75c-1.73,0-3.35-0.67-4.58-1.9c-1.22-1.22-1.89-2.85-1.89-4.57V324.1
				c0-1.73,0.67-3.35,1.89-4.57s2.85-1.89,4.58-1.89h1.75v3.5h-1.75c-0.79,0-1.54,0.31-2.1,0.87s-0.87,1.31-0.87,2.1v18.87
				c0,0.79,0.31,1.54,0.87,2.1c0.56,0.56,1.31,0.87,2.1,0.87h1.75V349.44z"/>
		</g>
		<g>
			<rect x="87.99" y="331.79" class="st1" width="3.5" height="3.5"/>
			<rect x="94.29" y="331.79" class="st1" width="3.5" height="3.5"/>
			<rect x="100.59" y="331.79" class="st1" width="3.5" height="3.5"/>
		</g>
	</g>
	<g>
		<g>
			<g>
				<rect x="220.2" y="89.39" class="st1" width="10.61" height="3.5"/>
				<rect x="230.81" y="103.39" class="st1" width="10.39" height="3.5"/>
				<rect x="230.81" y="110.39" class="st1" width="10.39" height="3.5"/>
				<rect x="220.2" y="96.39" class="st1" width="21" height="3.5"/>
				<rect x="230.81" y="75.39" class="st1" width="10.39" height="3.5"/>
				<rect x="230.81" y="82.39" class="st1" width="10.39" height="3.5"/>
				<rect x="220.2" y="68.39" class="st1" width="21" height="3.5"/>
			</g>
			<g>
				<rect x="277.58" y="89.38" class="st1" width="10.61" height="3.5"/>
				<rect x="267.2" y="75.38" class="st1" width="10.39" height="3.5"/>
				<rect x="267.2" y="68.39" class="st1" width="10.39" height="3.5"/>
				<rect x="267.2" y="82.39" class="st1" width="21" height="3.5"/>
				<rect x="267.2" y="103.39" class="st1" width="10.39" height="3.5"/>
				<rect x="267.2" y="96.39" class="st1" width="10.39" height="3.5"/>
				<rect x="267.2" y="110.39" class="st1" width="21" height="3.5"/>
			</g>
			<g>
				<path class="st1" d="M301.35,92.89c-1.86,0-3.62-0.73-4.95-2.05c-1.33-1.33-2.06-3.09-2.06-4.97V63.9
					c0-0.94-0.37-1.82-1.03-2.49c-0.66-0.66-1.54-1.03-2.49-1.03h-2.62v-3.5h2.62c1.89,0,3.65,0.73,4.97,2.06
					c1.32,1.32,2.05,3.08,2.05,4.96v21.96c0,0.94,0.37,1.82,1.03,2.49c0.67,0.66,1.55,1.03,2.48,1.03V92.89z"/>
				<path class="st1" d="M290.82,125.39h-2.62v-3.5h2.62c0.95,0,1.83-0.36,2.48-1.03c0.67-0.67,1.03-1.55,1.03-2.49V96.41
					c0-1.88,0.73-3.64,2.06-4.96c1.34-1.33,3.1-2.05,4.96-2.05v3.5c-0.93,0-1.82,0.37-2.49,1.04c-0.66,0.66-1.03,1.54-1.03,2.48
					v21.96c0,1.87-0.73,3.63-2.05,4.96C294.47,124.66,292.7,125.39,290.82,125.39z"/>
			</g>
			<g>
				<path class="st1" d="M207.03,92.89v-3.5c0.93,0,1.82-0.37,2.48-1.03c0.67-0.67,1.04-1.55,1.04-2.49V63.9
					c0-1.87,0.73-3.63,2.05-4.96c1.32-1.33,3.09-2.06,4.97-2.06h2.63v3.5h-2.63c-0.94,0-1.83,0.37-2.49,1.03
					c-0.66,0.67-1.03,1.55-1.03,2.49v21.96c0,1.88-0.73,3.64-2.06,4.97C210.66,92.16,208.9,92.89,207.03,92.89z"/>
				<path class="st1" d="M220.2,125.39h-2.63c-1.88,0-3.64-0.73-4.97-2.06c-1.32-1.33-2.05-3.09-2.05-4.96V96.41
					c0-0.94-0.37-1.82-1.03-2.49c-0.67-0.67-1.55-1.03-2.48-1.03v-3.5c1.87,0,3.63,0.73,4.96,2.05s2.06,3.09,2.06,4.96v21.96
					c0,0.94,0.37,1.82,1.03,2.49c0.66,0.66,1.54,1.03,2.49,1.03h2.63v3.51H220.2z"/>
			</g>
		</g>
	</g>
	<g>
		<rect x="316.55" y="89.67" class="st8" width="33" height="33"/>
		<path class="st1" d="M369.52,142.64h-33.5v-33.5h33.5V142.64z M339.52,139.14h26.5v-26.5h-26.5V139.14z"/>
	</g>
	<g>
		<path class="st1" d="M390.86,107.38h-7.41l-2.14-5.6c-1.11-0.35-2.18-0.8-3.21-1.34l-5.48,2.44l-5.23-5.23l2.44-5.47
			c-0.54-1.03-0.99-2.11-1.33-3.22l-5.59-2.13v-7.41l5.6-2.13c0.35-1.11,0.8-2.18,1.34-3.22l-2.44-5.47l5.23-5.23l5.47,2.45
			c1.03-0.54,2.1-0.99,3.22-1.34l2.14-5.59h7.41l2.14,5.59c1.12,0.35,2.19,0.8,3.22,1.34l5.48-2.45l5.23,5.23l-2.44,5.47
			c0.54,1.03,0.98,2.11,1.33,3.22l5.6,2.14v7.41l-5.6,2.13c-0.35,1.11-0.8,2.19-1.33,3.22l2.44,5.47l-5.23,5.23l-5.48-2.44
			c-1.03,0.54-2.11,0.99-3.21,1.34L390.86,107.38z M385.86,103.88h2.59l1.91-5l0.87-0.23c1.4-0.37,2.76-0.93,4.02-1.67l0.77-0.45
			l4.89,2.18l1.83-1.83L400.56,92l0.45-0.77c0.73-1.25,1.29-2.61,1.67-4.03l0.23-0.87l5-1.9v-2.59l-4.99-1.91l-0.23-0.87
			c-0.37-1.41-0.94-2.77-1.67-4.03l-0.45-0.77l2.18-4.88l-1.82-1.83l-4.9,2.19l-0.78-0.46c-1.24-0.73-2.59-1.29-4.02-1.67
			l-0.87-0.23l-1.91-5h-2.59l-1.91,4.99l-0.87,0.23c-1.42,0.38-2.77,0.94-4.02,1.67l-0.78,0.46l-4.89-2.19l-1.83,1.83l2.18,4.88
			l-0.45,0.77c-0.74,1.27-1.3,2.63-1.67,4.03l-0.23,0.87l-4.99,1.9v2.59l4.99,1.9l0.23,0.87c0.38,1.42,0.94,2.77,1.67,4.03
			l0.45,0.78l-2.18,4.89l1.83,1.83l4.89-2.18l0.77,0.45c1.27,0.74,2.62,1.3,4.03,1.67l0.87,0.23L385.86,103.88z"/>
		<path class="st4" d="M387.16,93.65c-5.81,0-10.52-4.71-10.52-10.52s4.71-10.52,10.52-10.52s10.52,4.72,10.52,10.52
			C397.68,88.94,392.97,93.65,387.16,93.65z"/>
	</g>
	<path class="st1" d="M103.09,243.77c-3.72,0-6.75-3.03-6.75-6.76c0-3.72,3.03-6.75,6.75-6.75s6.75,3.03,6.75,6.75
		C109.84,240.73,106.81,243.77,103.09,243.77z M103.09,233.76c-1.79,0-3.25,1.46-3.25,3.25c0,1.8,1.46,3.26,3.25,3.26
		s3.25-1.46,3.25-3.26S104.88,233.76,103.09,233.76z"/>
	<path class="st1" d="M81.42,227.25v-3.5c1.04,0,2.06-0.16,3.03-0.48l1.08,3.33C84.21,227.03,82.83,227.25,81.42,227.25z
		 M77.31,226.61c-1.33-0.43-2.58-1.06-3.71-1.89l2.05-2.83c0.84,0.61,1.76,1.08,2.74,1.39L77.31,226.61z M89.25,224.71l-2.06-2.83
		c0.84-0.61,1.57-1.34,2.17-2.17l2.83,2.06C91.37,222.9,90.38,223.89,89.25,224.71z M70.65,221.78c-0.83-1.13-1.47-2.38-1.9-3.71
		l3.33-1.09c0.32,0.98,0.79,1.9,1.4,2.73L70.65,221.78z M94.09,218.06l-3.33-1.08c0.32-0.97,0.48-1.99,0.48-3.03l3.5-0.05v0.05
		C94.74,215.35,94.52,216.74,94.09,218.06z M68.09,213.96L68.09,213.96c0-1.41,0.22-2.79,0.64-4.11l3.33,1.08
		c-0.31,0.97-0.47,1.99-0.47,3.02L68.09,213.96z M90.75,210.87c-0.32-0.98-0.79-1.89-1.41-2.73l2.82-2.07
		c0.83,1.13,1.47,2.38,1.91,3.71L90.75,210.87z M73.46,208.18l-2.83-2.05c0.82-1.13,1.81-2.12,2.94-2.95l2.06,2.83
		C74.79,206.62,74.06,207.35,73.46,208.18z M87.16,205.98c-0.84-0.61-1.76-1.07-2.74-1.39l1.07-3.33c1.33,0.43,2.58,1.06,3.72,1.88
		L87.16,205.98z M78.36,204.6l-1.09-3.33c1.32-0.43,2.71-0.65,4.11-0.66l0.01,3.5C80.35,204.12,79.33,204.29,78.36,204.6z"/>
</g>
</svg>
