<?xml version="1.0" encoding="utf-8"?>
<!-- Generator: Adobe Illustrator 24.0.2, SVG Export Plug-In . SVG Version: 6.00 Build 0)  -->
<svg version="1.1" xmlns="http://www.w3.org/2000/svg" xmlns:xlink="http://www.w3.org/1999/xlink" x="0px" y="0px"
	 viewBox="0 0 500 500" style="enable-background:new 0 0 500 500;" xml:space="preserve">
<style type="text/css">
	.st0{fill:#FFFFFF;}
	.st1{fill:#BADDEF;}
	.st2{fill:#FFC7A6;}
	.st3{fill:#2A5B5B;}
	.st4{fill:#40278C;}
	.st5{fill:#DAFBEF;}
	.st6{fill:#40288C;}
	.st7{fill:#4EAFC4;}
	.st8{fill:#3FA4C2;}
	.st9{fill:#42AFC4;}
	.st10{fill:#40289C;}
	.st11{font-family:'Asap-Bold';}
	.st12{font-size:32.7431px;}
	.st13{fill:#CCE2EA;}
	.st14{fill:#9AB3C0;}
	.st15{fill:#4D278C;}
</style>
<g id="Background">
	<rect y="0" class="st0" width="500" height="500"/>
</g>
<g id="Objects">
	<g>
		<g>
			<path class="st1" d="M66.28,274.03v96.85c-1.62-0.52-3.36-0.81-5.15-0.81c-1.8,0-3.53,0.29-5.16,0.81v-96.85
				c0-2.84,2.33-5.16,5.16-5.16c1.42,0,2.71,0.58,3.64,1.52C65.7,271.31,66.28,272.6,66.28,274.03z"/>
			<rect x="55.96" y="291.05" class="st2" width="10.32" height="3.18"/>
			<rect x="55.96" y="305.24" class="st2" width="10.32" height="3.18"/>
			<rect x="55.96" y="319.43" class="st2" width="10.32" height="3.18"/>
			<rect x="55.96" y="333.62" class="st2" width="10.32" height="3.18"/>
			<rect x="55.96" y="347.81" class="st2" width="10.32" height="3.18"/>
			<rect x="55.96" y="362" class="st3" width="10.32" height="3.18"/>
		</g>
		<g>
			<path class="st4" d="M45.77,393.78c-0.94-2.1-1.48-4.42-1.48-6.88c0-7.5,4.9-13.85,11.67-16.03c1.63-0.52,3.36-0.81,5.16-0.81
				c1.79,0,3.54,0.29,5.15,0.81c6.77,2.17,11.67,8.52,11.67,16.03c0,2.45-0.53,4.77-1.48,6.88h14.26c0.51-2.21,0.8-4.51,0.8-6.88
				c0-15.04-10.91-27.53-25.26-29.98c-1.67-0.29-3.4-0.44-5.15-0.44c-1.76,0-3.48,0.15-5.16,0.44
				c-14.34,2.45-25.26,14.94-25.26,29.98c0,2.37,0.29,4.66,0.8,6.88H45.77z"/>
			<path class="st5" d="M66.63,363.39c0,3.05-2.47,5.51-5.51,5.51c-3.04,0-5.51-2.47-5.51-5.51c0-3.05,2.47-5.51,5.51-5.51
				C64.16,357.88,66.63,360.35,66.63,363.39z"/>
		</g>
		<g>
			<g>
				<path class="st1" d="M239.28,198.56v10.25h-20.03c-1.77,0-3.46,0.33-5.02,0.93c-3.31,1.27-6.01,3.77-7.55,6.94
					c-0.49,0.99-0.86,2.06-1.1,3.18c-0.2,0.95-0.32,1.94-0.32,2.95v26.91c0,1.34-0.11,2.65-0.32,3.93
					c-0.66,3.96-2.26,7.59-4.59,10.67c-0.72,0.95-1.5,1.84-2.35,2.66c-2.8,2.77-6.27,4.86-10.14,5.99
					c-1.03,0.31-2.09,0.54-3.18,0.71c-1.2,0.18-2.42,0.28-3.67,0.28H142.6v-10.25h38.41c1.27,0,2.5-0.17,3.67-0.49
					c1.12-0.3,2.18-0.74,3.18-1.3c2.41-1.35,4.38-3.4,5.63-5.86c0.76-1.48,1.26-3.11,1.44-4.84c0.05-0.49,0.08-0.99,0.08-1.51
					v-26.91c0-1,0.06-2,0.18-2.97c0.13-1.09,0.34-2.14,0.61-3.18c1.16-4.46,3.57-8.41,6.82-11.47c0.88-0.85,1.82-1.62,2.83-2.31
					c3.91-2.73,8.66-4.32,13.78-4.32H239.28z"/>
				<rect x="174.03" y="263.71" class="st3" width="3.18" height="10.25"/>
				<path class="st3" d="M187.86,261.92v11.06c-1.03,0.31-2.09,0.54-3.18,0.71v-10.46C185.8,262.92,186.87,262.48,187.86,261.92z"/>
				<path class="st2" d="M200.35,264.32c-0.72,0.95-1.5,1.84-2.35,2.66l-4.52-10.92c0.76-1.48,1.26-3.11,1.44-4.84L200.35,264.32z"
					/>
				<path class="st2" d="M205.26,249.47v0.25c0,1.34-0.11,2.65-0.32,3.93l-9.93-9.94v-4.51L205.26,249.47z"/>
				<polygon class="st2" points="205.26,236.8 205.26,240.26 195.01,235.99 195.01,232.54 				"/>
				<rect x="195.01" y="226.38" class="st2" width="10.25" height="3.18"/>
				<path class="st2" d="M206.67,216.68c-0.49,0.99-0.86,2.06-1.1,3.18l-10.38-0.02c0.13-1.09,0.34-2.14,0.61-3.18L206.67,216.68z"
					/>
				<path class="st2" d="M220.55,208.81h-1.3c-1.77,0-3.46,0.33-5.02,0.93l-11.59-4.55c0.88-0.85,1.82-1.62,2.83-2.31L220.55,208.81
					z"/>
				<polygon class="st2" points="235.56,208.81 230.87,208.81 219.79,198.56 224.47,198.56 				"/>
			</g>
			<g>
				<path class="st4" d="M267.68,218.24c-2.1,0.94-4.42,1.48-6.88,1.48c-7.5,0-13.85-4.9-16.03-11.67
					c-0.52-1.63-0.81-3.36-0.81-5.16c0-1.79,0.29-3.54,0.81-5.15c2.17-6.77,8.53-11.67,16.03-11.67c2.45,0,4.77,0.53,6.88,1.48
					v-14.26c-2.21-0.51-4.51-0.8-6.88-0.8c-15.04,0-27.53,10.91-29.98,25.26c-0.29,1.67-0.44,3.4-0.44,5.15
					c0,1.76,0.15,3.48,0.44,5.16c2.45,14.35,14.94,25.26,29.98,25.26c2.37,0,4.66-0.29,6.88-0.8V218.24z"/>
				<circle class="st5" cx="237.3" cy="202.89" r="5.51"/>
			</g>
		</g>
		<g>
			<ellipse class="st5" cx="167.08" cy="269.14" rx="21.05" ry="20.35"/>
			<ellipse class="st5" cx="73.08" cy="269.14" rx="21.05" ry="20.35"/>
		</g>
		<g>
			<rect x="98.73" y="208.83" class="st2" width="42.7" height="34.77"/>
			<rect x="98.73" y="233.1" class="st2" width="42.7" height="10.5"/>
			<rect x="98.73" y="208.83" class="st2" width="42.7" height="15.81"/>
		</g>
		<g>
			<g>
				<rect x="56.07" y="130.75" class="st6" width="2.73" height="35.88"/>
				<circle class="st4" cx="57.44" cy="133.03" r="7.1"/>
			</g>
			<g>
				<rect x="181.36" y="130.75" class="st4" width="2.73" height="35.88"/>
				<path class="st4" d="M189.83,133.03c0,3.92-3.18,7.1-7.1,7.1c-3.92,0-7.1-3.18-7.1-7.1c0-3.92,3.18-7.1,7.1-7.1
					C186.65,125.93,189.83,129.11,189.83,133.03z"/>
			</g>
		</g>
		<g>
			<g>
				<g>
					<path class="st1" d="M192.9,168.38v27.54c0,4.47-3.62,8.08-8.08,8.08h-15.96V160.3h15.96
						C189.28,160.3,192.9,163.92,192.9,168.38z"/>
				</g>
				<g>
					<path class="st1" d="M71.32,160.3v43.69H55.35c-4.46,0-8.08-3.61-8.08-8.08v-27.54c0-4.46,3.62-8.08,8.08-8.08H71.32z"/>
				</g>
				<g>
					<path class="st2" d="M59.33,160.3h11.99v43.69H56.07c-0.32-1.33-0.49-2.71-0.49-4.13v-19.73
						C55.59,173.17,56.91,166.5,59.33,160.3z"/>
				</g>
				<g>
					<path class="st2" d="M184.59,180.13v19.73c0,1.42-0.17,2.8-0.49,4.13h-15.24V160.3h11.99
						C183.27,166.5,184.59,173.17,184.59,180.13z"/>
				</g>
			</g>
		</g>
		<g>
			<path class="st7" d="M144.52,356.71v52.85c0,6.75-2.74,12.86-7.16,17.28c-4.42,4.42-10.53,7.16-17.28,7.16
				c-13.5,0-24.44-10.94-24.44-24.44v-52.85c0-13.5,10.94-24.44,24.44-24.44C133.58,332.27,144.52,343.22,144.52,356.71z"/>
			<rect x="95.64" y="357.12" class="st2" width="48.88" height="32.03"/>
			<path class="st2" d="M139.68,399.3h-36.2c-0.99,0-1.8,0.81-1.8,1.8s0.81,1.8,1.8,1.8h36.2c0.99,0,1.8-0.81,1.8-1.8
				S140.67,399.3,139.68,399.3z"/>
			<path class="st2" d="M137.9,407.5h-32.65c-0.89,0-1.62,0.81-1.62,1.8c0,0.99,0.73,1.8,1.62,1.8h32.65c0.89,0,1.62-0.81,1.62-1.8
				C139.52,408.31,138.79,407.5,137.9,407.5z"/>
			<path class="st2" d="M134.95,415.7h-26.76c-0.73,0-1.33,0.81-1.33,1.8s0.6,1.8,1.33,1.8h26.76c0.73,0,1.33-0.81,1.33-1.8
				S135.69,415.7,134.95,415.7z"/>
		</g>
		<g>
			<path class="st1" d="M163.35,361.73l-1.09,4.45l-2.53,10.41c-0.94,3.85-4.38,6.55-8.34,6.55H88.78c-3.96,0-7.41-2.71-8.34-6.55
				l-2.53-10.41l-1.09-4.45c-1.31-5.41,2.78-10.62,8.34-10.62h69.86C160.58,351.11,164.67,356.32,163.35,361.73z"/>
			<path class="st2" d="M163.35,361.73l-1.09,4.45c-0.65,0.1-1.31,0.15-1.99,0.15H79.89c-0.68,0-1.34-0.05-1.99-0.15l-1.09-4.45
				c-1.31-5.41,2.78-10.62,8.34-10.62h69.86C160.58,351.11,164.67,356.32,163.35,361.73z"/>
		</g>
		<path class="st8" d="M151.28,362.73H88.89c-12.43,0-22.5-10.07-22.5-22.5V259.8c0-12.43,10.07-22.5,22.5-22.5h62.39
			c12.43,0,22.5,10.07,22.5,22.5v80.43C173.78,352.66,163.71,362.73,151.28,362.73z"/>
		<path class="st8" d="M120.08,121.17L120.08,121.17c-32.57,0-58.97,26.4-58.97,58.96v19.73c0,10.65,8.63,19.28,19.28,19.28h79.38
			c10.65,0,19.28-8.63,19.28-19.28v-19.73C179.05,147.57,152.65,121.17,120.08,121.17z"/>
		<path class="st5" d="M144.02,148.46H96.14c-11.26,0-20.47,9.21-20.47,20.47v0c0,11.26,9.21,20.47,20.47,20.47h47.88
			c11.26,0,20.47-9.21,20.47-20.47v0C164.5,157.67,155.28,148.46,144.02,148.46z"/>
		<g>
			<path class="st6" d="M107.03,165.36c-1.81-1.33-4.19-2.06-6.71-2.06c-1.01,0-2.03,0.12-3.01,0.36c-3.05,0.73-5.42,2.5-6.66,4.98
				c-0.85,1.69-0.16,3.76,1.53,4.62c0.48,0.24,1.01,0.36,1.54,0.36c1.31,0,2.49-0.73,3.07-1.9c0.45-0.89,1.63-1.26,2.12-1.38
				c0.44-0.11,0.9-0.16,1.37-0.16c1.06,0,2.05,0.27,2.67,0.72c0.23,0.17,0.41,0.39,0.52,0.66c0.54,1.26,1.78,2.07,3.16,2.07
				c0.47,0,0.93-0.09,1.36-0.28c1.74-0.75,2.54-2.78,1.79-4.52C109.19,167.45,108.24,166.25,107.03,165.36z"/>
			<path class="st6" d="M149.6,168.83c-0.6-1.38-1.55-2.59-2.76-3.47c-1.81-1.33-4.19-2.06-6.71-2.06c-1.02,0-2.03,0.12-3.01,0.36
				c-3.05,0.73-5.42,2.5-6.66,4.98c-0.41,0.82-0.48,1.75-0.19,2.63c0.29,0.87,0.9,1.58,1.72,1.99c0.48,0.24,1.01,0.36,1.54,0.36
				c1.31,0,2.49-0.73,3.07-1.9c0.45-0.89,1.63-1.26,2.12-1.38c0.44-0.11,0.9-0.16,1.37-0.16c1.06,0,2.05,0.27,2.67,0.72
				c0.23,0.17,0.41,0.39,0.52,0.66c0.54,1.26,1.78,2.07,3.16,2.07c0.47,0,0.93-0.09,1.36-0.28
				C149.55,172.6,150.35,170.57,149.6,168.83z"/>
		</g>
		<path class="st9" d="M140.4,253.71H99.77c-11.81,0-21.46,9.66-21.46,21.46v28.64c0,11.8,9.66,21.46,21.46,21.46h40.63
			c11.8,0,21.46-9.66,21.46-21.46v-28.64C161.86,263.36,152.2,253.71,140.4,253.71z"/>
		<g>
			<text transform="matrix(1 0 0 1 101.814 301.458)" class="st10 st11 st12">Hi!</text>
		</g>
	</g>
	<g>
		<g>
			<path class="st13" d="M445.99,40.7H307.49c-11.13,0-20.15,9.02-20.15,20.15v40.18c0,11.13,9.02,20.15,20.15,20.15h118.73
				c11.39,7.38,25.42,7.61,25.42,7.61c-3.24-2.53-5.86-5.08-8-7.61h2.35c11.13,0,20.15-9.02,20.15-20.15V60.85
				C466.14,49.72,457.12,40.7,445.99,40.7z"/>
			<g>
				<path class="st14" d="M436.16,60.25H317.32c-1.74,0-3.16,1.41-3.16,3.16c0,1.74,1.41,3.16,3.16,3.16h118.84
					c1.74,0,3.16-1.41,3.16-3.16C439.32,61.66,437.91,60.25,436.16,60.25z"/>
				<path class="st14" d="M436.16,76.42H317.32c-1.74,0-3.16,1.41-3.16,3.16c0,1.74,1.41,3.16,3.16,3.16h118.84
					c1.74,0,3.16-1.41,3.16-3.16C439.32,77.84,437.91,76.42,436.16,76.42z"/>
				<path class="st14" d="M436.16,92.6H317.32c-1.74,0-3.16,1.41-3.16,3.16c0,1.74,1.41,3.16,3.16,3.16h118.84
					c1.74,0,3.16-1.41,3.16-3.16C439.32,94.01,437.91,92.6,436.16,92.6z"/>
			</g>
		</g>
		<g>
			<path class="st13" d="M308.9,145.02h122.9c9.87,0,17.88,8,17.88,17.88v35.65c0,9.87-8,17.88-17.88,17.88H326.45
				c-10.11,6.55-22.56,6.75-22.56,6.75c2.87-2.25,5.2-4.51,7.1-6.75h-2.09c-9.87,0-17.88-8-17.88-17.88V162.9
				C291.03,153.03,299.03,145.02,308.9,145.02z"/>
			<g>
				<path class="st14" d="M317.63,162.37h105.45c1.55,0,2.8,1.25,2.8,2.8c0,1.55-1.25,2.8-2.8,2.8H317.63c-1.55,0-2.8-1.25-2.8-2.8
					C314.83,163.62,316.08,162.37,317.63,162.37z"/>
				<path class="st14" d="M317.63,176.72h105.45c1.55,0,2.8,1.25,2.8,2.8c0,1.55-1.25,2.8-2.8,2.8H317.63c-1.55,0-2.8-1.25-2.8-2.8
					C314.83,177.97,316.08,176.72,317.63,176.72z"/>
				<path class="st14" d="M317.63,191.07h105.45c1.55,0,2.8,1.25,2.8,2.8c0,1.55-1.25,2.8-2.8,2.8H317.63c-1.55,0-2.8-1.25-2.8-2.8
					C314.83,192.33,316.08,191.07,317.63,191.07z"/>
			</g>
		</g>
		<g>
			<path class="st13" d="M445.99,239.42H307.49c-11.13,0-20.15,9.02-20.15,20.15v40.18c0,11.13,9.02,20.15,20.15,20.15h118.73
				c11.39,7.38,25.42,7.61,25.42,7.61c-3.24-2.53-5.86-5.08-8-7.61h2.35c11.13,0,20.15-9.02,20.15-20.15v-40.18
				C466.14,248.44,457.12,239.42,445.99,239.42z"/>
			<g>
				<path class="st14" d="M436.16,258.97H317.32c-1.74,0-3.16,1.41-3.16,3.16s1.41,3.16,3.16,3.16h118.84
					c1.74,0,3.16-1.41,3.16-3.16S437.91,258.97,436.16,258.97z"/>
				<path class="st14" d="M436.16,275.14H317.32c-1.74,0-3.16,1.41-3.16,3.16s1.41,3.16,3.16,3.16h118.84
					c1.74,0,3.16-1.41,3.16-3.16S437.91,275.14,436.16,275.14z"/>
				<path class="st14" d="M436.16,291.32H317.32c-1.74,0-3.16,1.41-3.16,3.16c0,1.74,1.41,3.16,3.16,3.16h118.84
					c1.74,0,3.16-1.41,3.16-3.16C439.32,292.73,437.91,291.32,436.16,291.32z"/>
			</g>
		</g>
		<g>
			<path class="st13" d="M308.9,343.74h122.9c9.87,0,17.88,8,17.88,17.88v35.65c0,9.87-8,17.88-17.88,17.88H326.45
				c-10.11,6.55-22.56,6.75-22.56,6.75c2.87-2.25,5.2-4.51,7.1-6.75h-2.09c-9.87,0-17.88-8-17.88-17.88v-35.65
				C291.03,351.74,299.03,343.74,308.9,343.74z"/>
			<g>
				<path class="st14" d="M317.63,361.08h105.45c1.55,0,2.8,1.25,2.8,2.8c0,1.55-1.25,2.8-2.8,2.8H317.63c-1.55,0-2.8-1.25-2.8-2.8
					C314.83,362.34,316.08,361.08,317.63,361.08z"/>
				<path class="st14" d="M317.63,375.44h105.45c1.55,0,2.8,1.25,2.8,2.8c0,1.55-1.25,2.8-2.8,2.8H317.63c-1.55,0-2.8-1.25-2.8-2.8
					C314.83,376.69,316.08,375.44,317.63,375.44z"/>
				<path class="st14" d="M317.63,389.79h105.45c1.55,0,2.8,1.25,2.8,2.8c0,1.55-1.25,2.8-2.8,2.8H317.63c-1.55,0-2.8-1.25-2.8-2.8
					C314.83,391.04,316.08,389.79,317.63,389.79z"/>
			</g>
		</g>
		<g>
			<circle class="st15" cx="283.5" cy="79.58" r="16.37"/>
			<g>
				<path class="st0" d="M288.95,74.82c0,4.11-4.52,4.97-5,7.56c-0.16,0.56-0.54,0.73-1.42,0.73h-0.62c-0.94,0-1.32-0.21-1.32-0.78
					c0-1.56,0.89-2.85,1.83-3.98c1.13-1.32,2.34-2.37,2.34-3.25c0-0.94-0.62-1.51-1.99-1.51c-1.56,0-2.64,0.83-3.01,0.83
					c-0.75,0-1.69-1.64-1.69-2.2c0-1.59,2.96-2.18,5.05-2.18C286.72,70.04,288.95,71.87,288.95,74.82z M284.24,85.79v2.47
					c0,0.56-0.48,0.86-1.61,0.86h-0.86c-1.13,0-1.61-0.3-1.61-0.86v-2.47c0-0.56,0.48-0.86,1.61-0.86h0.86
					C283.76,84.93,284.24,85.23,284.24,85.79z"/>
			</g>
		</g>
		<g>
			<circle class="st15" cx="452.92" cy="182.14" r="16.37"/>
			<g>
				<path class="st0" d="M458.37,177.39c0,4.11-4.52,4.97-5,7.56c-0.16,0.56-0.54,0.73-1.42,0.73h-0.62c-0.94,0-1.32-0.21-1.32-0.78
					c0-1.56,0.89-2.85,1.83-3.98c1.13-1.32,2.34-2.37,2.34-3.25c0-0.94-0.62-1.51-1.99-1.51c-1.56,0-2.64,0.83-3.01,0.83
					c-0.75,0-1.69-1.64-1.69-2.2c0-1.59,2.96-2.18,5.05-2.18C456.14,172.6,458.37,174.43,458.37,177.39z M453.66,188.36v2.47
					c0,0.57-0.48,0.86-1.61,0.86h-0.86c-1.13,0-1.61-0.3-1.61-0.86v-2.47c0-0.56,0.48-0.86,1.61-0.86h0.86
					C453.18,187.49,453.66,187.79,453.66,188.36z"/>
			</g>
		</g>
		<g>
			<circle class="st15" cx="283.5" cy="280.08" r="16.37"/>
			<g>
				<path class="st0" d="M288.95,275.32c0,4.11-4.52,4.97-5,7.55c-0.16,0.56-0.54,0.73-1.42,0.73h-0.62c-0.94,0-1.32-0.21-1.32-0.78
					c0-1.56,0.89-2.85,1.83-3.98c1.13-1.32,2.34-2.37,2.34-3.25c0-0.94-0.62-1.51-1.99-1.51c-1.56,0-2.64,0.83-3.01,0.83
					c-0.75,0-1.69-1.64-1.69-2.2c0-1.59,2.96-2.18,5.05-2.18C286.72,270.54,288.95,272.37,288.95,275.32z M284.24,286.29v2.47
					c0,0.57-0.48,0.86-1.61,0.86h-0.86c-1.13,0-1.61-0.3-1.61-0.86v-2.47c0-0.56,0.48-0.86,1.61-0.86h0.86
					C283.76,285.43,284.24,285.73,284.24,286.29z"/>
			</g>
		</g>
		<g>
			<circle class="st15" cx="452.92" cy="382.65" r="16.37"/>
			<g>
				<path class="st0" d="M458.37,377.89c0,4.11-4.52,4.97-5,7.56c-0.16,0.56-0.54,0.73-1.42,0.73h-0.62c-0.94,0-1.32-0.21-1.32-0.78
					c0-1.56,0.89-2.85,1.83-3.98c1.13-1.32,2.34-2.37,2.34-3.25c0-0.94-0.62-1.51-1.99-1.51c-1.56,0-2.64,0.83-3.01,0.83
					c-0.75,0-1.69-1.64-1.69-2.2c0-1.59,2.96-2.18,5.05-2.18C456.14,373.1,458.37,374.93,458.37,377.89z M453.66,388.86v2.47
					c0,0.57-0.48,0.86-1.61,0.86h-0.86c-1.13,0-1.61-0.3-1.61-0.86v-2.47c0-0.56,0.48-0.86,1.61-0.86h0.86
					C453.18,388,453.66,388.29,453.66,388.86z"/>
			</g>
		</g>
	</g>
	<g>
	</g>
</g>
<g id="Designed_by_Freepik">
</g>
</svg>
