<?xml version="1.0" encoding="utf-8"?>
<!-- Generator: Adobe Illustrator 24.0.2, SVG Export Plug-In . SVG Version: 6.00 Build 0)  -->
<svg version="1.1" id="Calque_1" xmlns="http://www.w3.org/2000/svg" xmlns:xlink="http://www.w3.org/1999/xlink" x="0px" y="0px"
	 viewBox="0 0 500 500" style="enable-background:new 0 0 500 500;" xml:space="preserve">
<style type="text/css">
	.st0{fill:#FFFFFF;}
	.st1{opacity:0.17;fill:#44004E;enable-background:new    ;}
	.st2{fill:#986AA3;}
	.st3{fill:#D3A2DD;}
	.st4{fill:#4C2954;}
	.st5{fill:#683972;}
	.st6{fill:#44004E;}
	.st7{fill:#34003D;}
	.st8{fill:#FAF0FC;}
	.st9{fill:#0E61A1;}
	.st10{opacity:0.09;fill:#986AA3;enable-background:new    ;}
	.st11{opacity:0.43;fill:#986AA3;enable-background:new    ;}
	.st12{opacity:0.28;fill:#986AA3;enable-background:new    ;}
	.st13{fill:#380042;}
	.st14{fill:#4EAECA;}
	.st15{opacity:0.5;fill:#461782;enable-background:new    ;}
	.st16{fill:#F6B6A6;}
	.st17{fill:#461782;}
	.st18{fill:#36203A;}
	.st19{opacity:0.52;fill:#D86C56;enable-background:new    ;}
	.st20{fill:#54A4DB;}
	.st21{fill:#DD988A;}
	.st22{fill:#652BA4;}
	.st23{opacity:0.33;fill:#44004E;enable-background:new    ;}
	.st24{fill:#F99345;}
	.st25{fill:#290030;}
	.st26{fill:#EA7A2F;}
	.st27{fill:#DC89BD;}
</style>
<g id="BACKGROUND">
	<rect y="0.3" class="st0" width="500.19" height="499.69"/>
</g>
<g id="OBJECTS">
	<ellipse class="st1" cx="265.55" cy="412.68" rx="181.6" ry="9.25"/>
	<path class="st1" d="M381.17,196.23c-19.92-47.51-66.87-80.88-121.61-80.88c-1.31,0-2.62,0.02-3.93,0.06
		c-17.82-18.81-43.04-30.55-71-30.55c-54.01,0-97.79,43.78-97.79,97.79c0,33.2,16.55,62.53,41.84,80.2
		c7.76,65.4,63.39,116.11,130.88,116.11c13.92,0,27.32-2.16,39.92-6.16c14.63,8.72,31.73,13.74,50,13.74
		c54.01,0,97.79-43.78,97.79-97.79C447.27,245.85,419.62,209.4,381.17,196.23z"/>
	<g>
		<g>
			<g>
				<path class="st2" d="M334.73,397.64c0,0,7.48,12.55,19.05,11.87s8.78-15.53,17.98-30.03s12.82-9.98,23.59-16.98
					s4.68-14.69,12.09-29.94s21.68-19.5,21.68-19.5s-23.77-7.45-36.96,4.51c-13.2,11.96-8.34,21.7-20.9,27.94
					s-46.07,3.24-49.4,19.78C318.52,381.84,334.73,397.64,334.73,397.64z"/>
				<g>
					<path class="st3" d="M328.07,391.7c1.09-2.56,2.61-4.93,4.33-7.13c1.73-2.2,3.7-4.2,5.86-5.97c2.15-1.79,4.56-3.27,7.06-4.53
						l1.9-0.91l1.96-0.75c1.31-0.53,2.64-0.91,3.96-1.37c5.26-1.79,10.67-3.26,15.53-5.84c4.88-2.55,8.84-6.55,11.96-11.09l1.19-1.7
						l1.12-1.75c0.76-1.15,1.47-2.36,2.21-3.54c1.47-2.37,2.95-4.73,4.5-7.05c3.1-4.64,6.38-9.18,10.19-13.28
						c3.8-4.08,8.09-7.83,13.08-10.41c4.97-2.57,10.64-3.86,16.2-3.32c-5.57-0.31-11.14,1.07-15.97,3.76
						c-4.87,2.63-9.04,6.4-12.74,10.5c-3.68,4.14-6.96,8.62-10,13.27c-1.52,2.32-2.99,4.68-4.45,7.05
						c-0.73,1.18-1.43,2.38-2.19,3.56l-1.13,1.77c-0.39,0.58-0.8,1.15-1.2,1.73c-3.19,4.59-7.31,8.71-12.35,11.31
						c-5.01,2.61-10.43,4.1-15.72,5.77c-1.32,0.43-2.67,0.8-3.95,1.3l-1.94,0.71l-1.88,0.86c-2.48,1.19-4.88,2.61-7.04,4.34
						C334.21,382.37,330.51,386.7,328.07,391.7z"/>
				</g>
			</g>
			<g>
				<path class="st4" d="M321.97,388.19c0,0-7.1-11.28-0.88-19.48c6.22-8.19,17.57,0.7,34.46,0.61c16.89-0.09,14.79-4.82,26.02-9.52
					c11.24-4.7,14.85,3.33,31.52,4.9c16.66,1.58,27.24-6.96,27.24-6.96s-5.2,20.91-21.87,25.1c-16.66,4.19-22.63-3.86-34.09,2.5
					s-25.21,32.38-40.99,27.21C327.6,407.38,321.97,388.19,321.97,388.19z"/>
				<g>
					<path class="st3" d="M323.81,395.82c5.28,0.48,10.63-0.2,15.65-1.77c2.52-0.77,4.93-1.87,7.23-3.14l1.69-1.01
						c0.56-0.34,1.08-0.75,1.62-1.12c1.08-0.74,2.11-1.58,3.16-2.39c4.17-3.24,8.26-6.71,13.07-9.17
						c4.81-2.47,10.24-3.45,15.55-3.68c2.67-0.14,5.34-0.07,7.98-0.06c2.65,0.02,5.3,0.03,7.94-0.01c5.29-0.08,10.57-0.4,15.8-1.13
						c5.21-0.75,10.4-2,15.16-4.27c4.77-2.2,8.99-5.74,11.67-10.33c-2.48,4.71-6.7,8.4-11.46,10.77
						c-4.79,2.39-10.02,3.73-15.26,4.59c-5.26,0.86-10.59,1.15-15.9,1.28c-2.66,0.06-5.31,0.07-7.97,0.06c-2.66,0-5.3-0.06-7.92,0.1
						c-5.25,0.19-10.51,1.12-15.19,3.49c-4.69,2.34-8.76,5.81-13.01,8.96c-1.07,0.79-2.1,1.62-3.22,2.36
						c-0.56,0.37-1.09,0.78-1.67,1.11l-1.74,1c-2.36,1.25-4.82,2.32-7.39,3.05c-2.57,0.73-5.2,1.22-7.84,1.45
						C329.11,396.2,326.43,396.2,323.81,395.82z"/>
				</g>
			</g>
			<g>
				<path class="st5" d="M328.55,387.34c0,0,10.95,9.47,21.74,5.07c10.79-4.4,3.6-17.57,7.92-34.29
					c4.32-16.73,9.13-13.62,17.24-23.75c8.1-10.13-0.04-15.44,2.35-32.3s14.65-25.51,14.65-25.51s-24.87,0.65-33.76,16.27
					s-1.3,23.27-11.34,33.26c-10.03,9.99-42.81,18.02-40.92,34.78C308.31,377.62,328.55,387.34,328.55,387.34z"/>
				<g>
					<path class="st3" d="M320.4,383.87c0.25-2.8,0.98-5.54,1.94-8.18c0.97-2.64,2.24-5.18,3.75-7.56c1.5-2.4,3.33-4.57,5.32-6.57
						l1.53-1.47l1.63-1.35c1.08-0.93,2.22-1.72,3.34-2.58c4.45-3.4,9.14-6.55,12.97-10.57c3.86-3.99,6.4-9.06,8-14.38l0.61-1.99
						l0.53-2.02c0.37-1.34,0.68-2.72,1.02-4.08c0.67-2.72,1.37-5.45,2.13-8.15c1.53-5.41,3.26-10.79,5.64-15.91
						c2.37-5.1,5.29-10.03,9.24-14.09c3.93-4.04,8.92-7.11,14.4-8.41c-5.41,1.52-10.28,4.65-14.04,8.75
						c-3.82,4.07-6.63,8.98-8.89,14.07c-2.24,5.11-3.99,10.44-5.46,15.83c-0.74,2.7-1.42,5.41-2.08,8.14
						c-0.34,1.36-0.63,2.73-1,4.09l-0.53,2.05l-0.61,2.03c-1.64,5.39-4.3,10.62-8.29,14.7c-3.96,4.09-8.66,7.25-13.17,10.56
						c-1.12,0.84-2.29,1.62-3.36,2.51l-1.63,1.3l-1.52,1.42c-1.99,1.93-3.83,4.05-5.36,6.39
						C323.4,373.02,321.19,378.32,320.4,383.87z"/>
				</g>
			</g>
		</g>
		<g>
			<g>
				<path class="st2" d="M203.54,396.39c0,0-6.16,11.8-15.69,11.16c-9.53-0.64-7.23-14.6-14.81-28.23s-10.55-9.39-19.43-15.97
					c-8.87-6.58-3.85-13.81-9.96-28.15c-6.1-14.34-17.85-18.33-17.85-18.33s19.57-7,30.44,4.24s6.87,20.4,17.21,26.27
					c10.34,5.87,37.94,3.04,40.68,18.6C216.89,381.53,203.54,396.39,203.54,396.39z"/>
				<g>
					<path class="st3" d="M209.03,390.8c-1.91-4.46-4.84-8.44-8.38-11.69c-1.77-1.64-3.76-3.01-5.84-4.2l-1.6-0.83
						c-0.53-0.27-1.1-0.47-1.65-0.71c-1.09-0.48-2.25-0.86-3.39-1.28c-2.28-0.81-4.58-1.6-6.85-2.5c-2.27-0.89-4.52-1.9-6.6-3.22
						c-4.22-2.62-7.42-6.57-9.95-10.72c-1.29-2.08-2.41-4.25-3.55-6.38c-1.14-2.14-2.3-4.26-3.51-6.36
						c-2.4-4.2-4.99-8.29-7.91-12.13c-2.93-3.81-6.28-7.38-10.31-10.03c-3.98-2.7-8.81-4.18-13.67-3.88
						c4.85-0.53,9.81,0.86,13.94,3.47c4.15,2.61,7.61,6.17,10.65,9.97c3.05,3.81,5.65,7.95,8.1,12.15c1.22,2.1,2.4,4.23,3.56,6.36
						c1.17,2.13,2.29,4.27,3.56,6.31c2.47,4.11,5.54,7.93,9.59,10.48c4.03,2.57,8.72,4.01,13.23,5.76c1.13,0.44,2.28,0.83,3.39,1.35
						c0.56,0.26,1.13,0.47,1.67,0.76l1.61,0.88c2.1,1.25,4.1,2.69,5.86,4.39c1.75,1.7,3.33,3.58,4.68,5.6
						C207.02,386.37,208.2,388.52,209.03,390.8z"/>
				</g>
			</g>
			<g>
				<path class="st4" d="M214.05,387.5c0,0,5.84-10.61,0.72-18.31s-14.47,0.66-28.37,0.58c-13.91-0.08-12.18-4.54-21.43-8.95
					c-9.25-4.42-12.23,3.13-25.95,4.61c-13.72,1.48-22.43-6.54-22.43-6.54s4.28,19.66,18.01,23.6c13.72,3.94,18.63-3.63,28.07,2.35
					s20.76,30.45,33.76,25.58C209.42,405.55,214.05,387.5,214.05,387.5z"/>
				<g>
					<path class="st3" d="M212.54,394.68c-2.21,0.36-4.46,0.35-6.69,0.13c-2.23-0.23-4.44-0.71-6.57-1.43
						c-2.14-0.7-4.16-1.73-6.08-2.92l-1.42-0.93l-1.34-1.04c-0.91-0.68-1.72-1.44-2.58-2.16c-3.4-2.88-6.63-6.01-10.43-8.23
						c-3.78-2.25-8.17-3.22-12.58-3.4c-2.2-0.15-4.42-0.1-6.66-0.1c-2.23,0.01-4.47,0-6.71-0.06c-4.47-0.13-8.97-0.43-13.38-1.29
						c-4.4-0.86-8.77-2.2-12.64-4.54c-3.84-2.34-7.06-5.75-8.89-9.84c2.04,3.98,5.28,7.26,9.14,9.42c3.84,2.21,8.17,3.45,12.53,4.2
						c4.37,0.73,8.82,1.05,13.26,1.14c2.22,0.05,4.45,0.04,6.68,0.02c2.22-0.01,4.47-0.09,6.73,0.06c4.48,0.21,9.07,1.25,12.98,3.61
						c3.91,2.35,7.15,5.48,10.47,8.44c0.84,0.73,1.65,1.52,2.51,2.19l1.29,1.04l1.37,0.93c1.85,1.2,3.81,2.25,5.9,2.99
						C203.59,394.46,208.1,395.13,212.54,394.68z"/>
				</g>
			</g>
			<g>
				<path class="st5" d="M208.63,386.7c0,0-9.01,8.9-17.9,4.76c-8.89-4.14-2.97-16.52-6.52-32.24c-3.56-15.72-7.52-12.81-14.2-22.33
					c-6.67-9.52,0.03-14.52-1.93-30.37c-1.97-15.85-12.07-23.99-12.07-23.99s20.48,0.61,27.8,15.3c7.32,14.68,1.07,21.88,9.34,31.27
					c8.26,9.4,35.25,16.94,33.7,32.7C225.3,377.57,208.63,386.7,208.63,386.7z"/>
				<g>
					<path class="st3" d="M215.35,383.44c-1.35-10.04-6.72-19.4-14.81-25.43c-3.87-3.23-7.94-6.34-11.21-10.33
						c-3.28-3.98-5.31-8.84-6.62-13.75c-0.68-2.46-1.16-4.96-1.69-7.43c-0.52-2.47-1.06-4.94-1.65-7.4
						c-1.16-4.91-2.54-9.77-4.3-14.49c-1.77-4.71-3.99-9.29-7.07-13.27c-3.02-4.01-7.16-7.23-11.99-8.81
						c4.9,1.36,9.19,4.54,12.38,8.5c3.21,3.98,5.53,8.58,7.4,13.29c1.88,4.73,3.25,9.64,4.46,14.56c0.6,2.46,1.16,4.94,1.69,7.41
						c0.55,2.48,1.04,4.95,1.72,7.36c1.26,4.85,3.2,9.56,6.36,13.44c3.14,3.89,7.19,6.98,11,10.31c0.96,0.83,1.93,1.63,2.85,2.53
						c0.46,0.45,0.95,0.86,1.38,1.33l1.29,1.42c1.64,1.95,3.15,4.03,4.35,6.27c1.2,2.24,2.2,4.6,2.95,7.02
						C214.61,378.42,215.16,380.91,215.35,383.44z"/>
				</g>
			</g>
		</g>
		<g>
			<g>
				<path class="st6" d="M337.58,413.82H209.86c-7.71,0-13.96-6.25-13.96-13.96V106.98c0-7.71,6.25-13.96,13.96-13.96h127.72
					c7.71,0,13.96,6.25,13.96,13.96v292.88C351.54,407.57,345.29,413.82,337.58,413.82z"/>
				<path class="st7" d="M273.93,413.82H195.9V107.33c0-7.9,6.41-14.31,14.31-14.31h63.72V413.82z"/>
				<path class="st8" d="M343.46,365.47H203.57c-1.53,0-2.78-1.24-2.78-2.78v-257.9c0-1.53,1.24-2.78,2.78-2.78h139.89
					c1.53,0,2.78,1.24,2.78,2.78V362.7C346.24,364.23,345,365.47,343.46,365.47z"/>
				<path class="st6" d="M293.35,111.52h-38.41c-7.2,0-13.03-5.83-13.03-13.03v-0.36h64.47v0.36
					C306.38,105.69,300.54,111.52,293.35,111.52z"/>
				<ellipse class="st9" cx="273.47" cy="389.37" rx="11.27" ry="10.93"/>
			</g>
			<rect x="212.49" y="122.93" class="st10" width="121.17" height="71.39"/>
			<rect x="211.53" y="254.19" class="st11" width="123.1" height="38.66"/>
			<rect x="210.76" y="304.77" class="st12" width="56.85" height="38.66"/>
			<rect x="276.13" y="304.77" class="st12" width="56.7" height="38.66"/>
			<rect x="212.49" y="204.37" class="st12" width="56.85" height="38.66"/>
			<rect x="277.86" y="204.37" class="st12" width="56.7" height="38.66"/>
		</g>
		<g>
			<g>
				<path class="st13" d="M146.59,413.63l-42.76-0.91c0,0,0.54-2.06,1.2-4.55c0.77-2.9,1.69-6.39,2.09-7.87
					c0.73-2.74,3.1-6.76,5.66-6.4c2.56,0.36,7.13-1.28,11.51,1.83c4.38,3.1,8.77,7.49,15.53,9.68c3.29,1.07,4.98,3.05,5.85,4.8
					C146.59,412.05,146.59,413.63,146.59,413.63z"/>
				<path class="st14" d="M208.16,186.16c0,0-11.88,36.12-14.07,38.49c-0.66,0.71-3.42,0.8-6.97,0.59
					c-8.33-0.51-20.99-2.72-20.99-2.72s-2.19-4.75-3.47-12.79c-0.52-3.3-0.92-9.79-1.2-16.3c-0.4-9.37-0.58-18.78-0.58-18.78
					s21.15,25.22,24.99,27.04l11.88-20.65L208.16,186.16z"/>
				<path class="st15" d="M187.13,225.24c-8.33-0.51-20.99-2.72-20.99-2.72s-2.19-4.75-3.47-12.79c-0.52-3.3-0.92-9.79-1.2-16.3
					c2.66,1.81,6.13,5.16,7.41,10.82c2.19,9.69,2.01,10.41,8.22,12.06C181.54,217.48,185.33,222.48,187.13,225.24z"/>
				<path class="st16" d="M113.6,369.29l-0.96,26.23c-0.1,2.74,1.78,5.21,4.48,5.69c0.59,0.11,1.19,0.11,1.79-0.03
					c3.07-0.74,3.35-4.97,3.35-4.97l0.87-26.78L113.6,369.29z"/>
				<path class="st13" d="M197.56,413.63l-46.59-0.36c0,0,0.38-1.59,0.74-3.77c0.43-2.61,0.84-6.07,0.54-8.66
					c-0.55-4.75,1.64-6.76,3.47-7.49c1.83-0.73,6.21-0.37,9.5-0.37s5.85,2.56,10.96,6.76c5.12,4.2,12.79,4.2,16.08,4.75
					c1.74,0.29,3.12,2.82,4.03,5.14C197.12,411.72,197.56,413.63,197.56,413.63z"/>
				<path class="st16" d="M153.53,370.15l2.27,23.37c0.24,2.45,2.51,4.26,4.92,3.8c0.16-0.03,0.32-0.07,0.48-0.12
					c0.15-0.05,0.29-0.1,0.43-0.16c1.63-0.66,2.67-2.27,2.63-4.03l-0.51-23.76L153.53,370.15z"/>
				<polygon class="st9" points="127.4,395 122.83,402.31 130.51,405.59 133.25,399.93 				"/>
				<path class="st9" d="M146.59,413.63l-42.76-0.91c0,0,0.54-2.06,1.2-4.55l40.46,2l0.19,0.05
					C146.59,412.05,146.59,413.63,146.59,413.63z"/>
				<path class="st9" d="M197.56,413.63l-46.59-0.36c0,0,0.38-1.59,0.74-3.77l4.86-0.43l39.72,0.58
					C197.12,411.72,197.56,413.63,197.56,413.63z"/>
				<polygon class="st9" points="171.8,394.03 167.66,400.99 176.51,404.01 178.87,398.36 				"/>
				<path class="st9" d="M136.81,262.62c0,0,6.85,55.64,7.4,70.16c0.55,14.53,3.29,20.83,3.29,27.68s0.55,12.33,0.55,12.33
					l22.2-0.55c0,0-0.55-55.36-0.82-60.02s-2.74-49.88-2.74-49.88L136.81,262.62z"/>
				<path class="st9" d="M154.63,264.81c0,0-2.74,16.44-6.58,27.68s-16.99,65.23-18.09,70.44c-1.1,5.21-2.47,11.24-2.47,11.24
					h-18.91c0,0,0.27-12.33,0.27-21.65s-0.82-27.13,1.1-37.82s0.82-27.68,0.55-37s2.47-20.83,2.47-20.83L154.63,264.81z"/>
				<path class="st14" d="M168.88,273.86c0,0-2.47,2.19-7.4,3.29s-10.69-1.37-18.36-5.75c-7.68-4.39-9.87,5.75-19.19,2.74
					s-15.62-16.17-15.62-16.17s0.55-7.4,3.29-18.36s3.84-42.21,5.48-49.61c1.64-7.4,3.84-9.59,9.04-14.8
					c3.95-3.95,9.63-6.01,12.14-6.77c0.8-0.24,1.28-0.36,1.28-0.36s9.78,2.33,15.81,4.13c2.23,0.67,3.95,1.26,4.47,1.63
					c1.92,1.37,4.11,3.56,5.21,7.67s2.19,17.82,1.37,24.67c-0.82,6.85-0.27,29.05-0.27,35.63
					C166.14,248.37,168.88,273.86,168.88,273.86z"/>
				<path class="st14" d="M132.15,185.06c0,0-6.58-6.03-12.61-2.74s-9.29,17.75-10.11,31.73s1.07,36.51,9.01,36.24
					c7.95-0.27,44.13-25.49,44.13-25.49l-7.13-11.24l-26.59,9.59C128.86,223.15,135.44,190.81,132.15,185.06z"/>
				<polygon class="st17" points="155.45,213.56 160.65,211.73 165.31,221.78 162.57,224.8 				"/>
				<path class="st16" d="M176.82,204.61l-15.53,7.86l3.56,8.31c0,0,11.6-5.85,12.52-9.78
					C178.29,207.08,176.82,204.61,176.82,204.61z"/>
				<polygon class="st17" points="197.75,181.04 201.03,176.56 209.17,180.31 208.16,186.15 				"/>
				<path class="st16" d="M212.55,163.95c0,0-2.1-2.1-4.11-0.37c-2.01,1.74-7.31,13.52-7.31,13.52l7.86,3.38
					c0,0,2.1-8.68,3.01-11.42C212.91,166.33,212.55,163.95,212.55,163.95z"/>
				<path class="st17" d="M155.36,172.2c-6.03-1.8-15.81-4.13-15.81-4.13s-0.48,0.11-1.28,0.36c0.64,2.07,2.13,6.36,4.57,10.33
					c3.38,5.48,11.69,5.03,13.15,2.19C157.41,178.21,155.49,172.58,155.36,172.2z"/>
				<g>
					<path class="st16" d="M141.47,149.79l-1.1,18.82c0,0,3.56,8.77,7.58,10.23c4.02,1.46,5.85,0.37,6.49-1.01
						c0.64-1.37-1.46-6.21-1.46-6.21l-0.27-7.49l0.27-2.83L141.47,149.79z"/>
					<path class="st16" d="M140.46,134.08c0,0-2.47,25.31,7.49,29.14c9.96,3.84,21.65-8.86,20.74-23.75
						c-0.91-14.89-12.97-15.8-15.8-15.62C150.06,124.03,141.2,127.32,140.46,134.08z"/>
					<path class="st6" d="M141.84,148.06c0,0,2.92-2.01,4.02-5.94c1.1-3.93-0.82-7.58-0.82-7.58l2.83,5.21l-0.55-8.4
						c0,0,4.2,6.85,9.23,7.77c0,0-2.74-4.02-2.83-6.76c0,0,5.76,6.67,14.43,6.4c8.68-0.27,14.71-2.01,16.26-9.32
						c0,0-14.16-2.38-18.64-6.67c0,0,7.22-0.27,9.23-2.56c0,0-8.68,1.1-13.89-0.82c-5.21-1.92-14.98-1.37-16.99,0.55
						c-2.01,1.92-2.28,5.02-2.28,5.02s-6.12,0.09-7.58,3.75s-0.05,25.58,6.81,29.14l0.37-4.89l-0.59-3.7L141.84,148.06z"/>
					<path class="st16" d="M146.63,146.67c0,3.41-2.76,6.17-6.17,6.17s-6.17-2.76-6.17-6.17s2.76-6.17,6.17-6.17
						S146.63,143.27,146.63,146.67z"/>
					<path class="st18" d="M157.3,144.01c0,0.91-0.74,1.64-1.64,1.64s-1.64-0.74-1.64-1.64s0.74-1.64,1.64-1.64
						S157.3,143.1,157.3,144.01z"/>
					<path class="st18" d="M166.99,147.97c0,0.76-0.61,1.37-1.37,1.37s-1.37-0.61-1.37-1.37s0.61-1.37,1.37-1.37
						S166.99,147.21,166.99,147.97z"/>
					<g>
						<g>
							<path class="st18" d="M155.33,149.79c-3.34,0-6.05-2.71-6.05-6.05c0-3.33,2.71-6.05,6.05-6.05c3.33,0,6.05,2.71,6.05,6.05
								C161.38,147.07,158.66,149.79,155.33,149.79z M155.33,138.27c-3.02,0-5.47,2.45-5.47,5.47s2.45,5.47,5.47,5.47
								s5.47-2.45,5.47-5.47S158.34,138.27,155.33,138.27z"/>
						</g>
						<g>
							<path class="st18" d="M167.51,154.27c-3.09,0-5.6-2.51-5.6-5.6c0-3.09,2.51-5.6,5.6-5.6c3.09,0,5.6,2.51,5.6,5.6
								C173.11,151.75,170.6,154.27,167.51,154.27z M167.51,143.64c-2.77,0-5.02,2.25-5.02,5.02s2.25,5.02,5.02,5.02
								s5.02-2.25,5.02-5.02S170.28,143.64,167.51,143.64z"/>
						</g>
						<g>
							
								<rect x="161.47" y="145.13" transform="matrix(0.3443 -0.9389 0.9389 0.3443 -31.1064 247.6799)" class="st18" width="0.58" height="1.95"/>
						</g>
					</g>
					<path class="st18" d="M153.71,154.67l3.78,2.07c0,0-1.58,2.56-3.9,1.46C151.28,157.1,153.71,154.67,153.71,154.67z"/>
					<path class="st19" d="M152.39,151.37c-0.32,0.7-1.56,0.83-2.77,0.28s-1.93-1.57-1.61-2.27c0.32-0.7,1.56-0.83,2.77-0.28
						S152.71,150.67,152.39,151.37z"/>
					<path class="st19" d="M165.1,157.67c-0.32,0.7-1.56,0.83-2.77,0.28s-1.93-1.57-1.61-2.27c0.32-0.7,1.56-0.83,2.77-0.28
						C164.7,155.95,165.42,156.96,165.1,157.67z"/>
				</g>
				<g>
					<path class="st9" d="M112.13,374.21l-1.61-0.64c0.03-0.08,3.22-8.21,2.95-19.12c-0.24-10.02-0.05-12.06,0.76-20.62l0.34-3.6
						c0.65-6.99,1.86-15.66,2.83-22.62c0.66-4.71,1.17-8.44,1.28-9.97c0.28-3.89,3.73-15.07,3.87-15.54l1.65,0.51
						c-0.04,0.11-3.54,11.46-3.8,15.15c-0.11,1.6-0.64,5.34-1.3,10.09c-0.97,6.95-2.17,15.59-2.82,22.54l-0.34,3.6
						c-0.8,8.48-1,10.49-0.75,20.41C115.48,365.7,112.26,373.87,112.13,374.21z"/>
				</g>
				<path class="st20" d="M122.83,273.49l-2.31,14.86c0,0,7.92-1.83,9.87-5.97s1.83-9.01,1.83-9.01S124.66,275.56,122.83,273.49z"/>
				<path class="st15" d="M130.14,182.87c0,0,4.39,3.29,4.39,10.96s-6.58,30.15-6.58,30.15l25.58-9.68l-21.56,5.12
					C131.97,219.41,142.75,189.08,130.14,182.87z"/>
				<path class="st21" d="M143.05,153.39c0,0,1.52,9.07,9.65,10.75l0.27,7.49C152.98,171.63,143.3,172.51,143.05,153.39z"/>
				<path class="st21" d="M143.39,146.69c0,0-2.65-3.01-4.66-2.28c-2.01,0.73-1.19,2.56-1.19,2.56s1.83-2.19,2.65-1.28
					c0.82,0.91-0.55,2.1-0.55,2.1s-0.27,1.55,0.73,1.01C141.38,148.24,143.39,146.69,143.39,146.69z"/>
				<polygon class="st21" points="165.59,210.27 164.86,220.78 161.29,212.47 				"/>
				<polygon class="st21" points="202.92,173.15 208.71,180.58 200.85,177.2 				"/>
				<path class="st9" d="M141.74,312.5l8.77-22.75l10.69-7.13c0,0-10.14,12.33-10.69,18.91c-0.55,6.58,0.27,15.07-0.27,22.75
					c-0.55,7.67-5.21,18.64-5.21,18.64L141.74,312.5z"/>
				<polygon class="st21" points="113.15,374.35 122.83,381.48 123.02,373.98 				"/>
				<polygon class="st21" points="153.8,372.8 163.67,383.76 163.94,372.52 				"/>
				<path class="st15" d="M108.06,257.26l3.46-16.92c0,0,2.88,13.08,7.69,12.89c4.81-0.19,20.58-13.66,20.58-13.66
					s-12.12,16.54-17.89,18.46c-5.77,1.92-10,5.96-10,5.96L108.06,257.26z"/>
			</g>
			<g>
				<polygon class="st22" points="182,144.62 184.73,157.88 188.97,158.56 185.28,142.56 				"/>
				<polygon class="st6" points="182.29,146.92 184.76,146.28 184.85,147.92 182.75,148.56 				"/>
				<polygon class="st6" points="183.11,150.34 185.58,149.7 185.67,151.34 183.57,151.98 				"/>
				<polygon class="st6" points="183.8,153.55 186.26,152.91 186.35,154.55 184.25,155.19 				"/>
				<g>
					<polygon class="st22" points="249.69,159.74 234.7,159.47 224.97,159.29 218.84,159.18 217.94,159.16 200.3,158.84 
						192.39,158.7 189.79,140.24 213.48,129.05 214.14,128.73 219.37,126.26 227.32,122.5 241.11,115.99 241.58,118.38 					"/>
					<path class="st23" d="M241.58,118.38c-1.56,1.8-4.23,4.71-8.71,9.28c-9.44,9.57-16.55,6.56-20.38,12.17s-0.14,10.12-5.46,12.58
						c-3.64,1.67-5.74,4.69-6.72,6.43l-7.92-0.15l-2.6-18.46l23.69-11.19l0.67-0.32l5.23-2.47l7.95-3.76l13.79-6.51L241.58,118.38z"
						/>
					<polygon class="st24" points="212.4,158.82 212.09,179.89 209.61,180.11 207.28,180.32 205.34,173.09 200.78,158.61 
						205.14,158.68 					"/>
					<path class="st6" d="M249.95,159.94c-1.16,0.26-2.46-0.44-3.79-1.89c-2.95-3.23-6.02-10.18-7.9-18.55
						c-1.74-7.77-2.02-14.88-1.01-19.21v-0.01c0.56-2.41,1.53-3.95,2.88-4.25c3.74-0.84,8.97,8.31,11.68,20.43
						C254.52,148.6,253.69,159.11,249.95,159.94z"/>
					<path class="st25" d="M246.16,158.05c-2.95-3.23-6.02-10.18-7.9-18.55c-1.74-7.77-2.02-14.88-1.01-19.21
						c2.95,3.24,6.02,10.17,7.9,18.54C246.89,146.62,247.16,153.73,246.16,158.05z"/>
					<path class="st24" d="M237.1,132.22l9.89-1.78l3.53,12.15l-10.14,4.35C240.39,146.94,237.29,138.78,237.1,132.22z"/>
					<path class="st26" d="M250.63,135.97c0.97,3.35,0.93,6.32-0.11,6.62c-1.03,0.3-2.66-2.18-3.63-5.53s-0.93-6.32,0.11-6.62
						C248.03,130.14,249.66,132.62,250.63,135.97z"/>
					<path class="st6" d="M233.93,159.38l-9.73-0.17c-2.42-6.87-6.1-19.6-5.59-32.59l7.95-3.71l-0.07,0.23
						c0,0-0.81,11.87,1.65,21.45C229.81,151.18,232.28,156.3,233.93,159.38z"/>
					<path class="st24" d="M234.7,159.47l-9.73-0.17c-2.42-6.96-6.1-19.87-5.59-33.03l7.95-3.76l-0.07,0.23
						c0,0-0.81,12.03,1.65,21.74C230.59,151.15,233.06,156.34,234.7,159.47z"/>
					<path class="st24" d="M218.84,159.18l-0.9-0.02c-1.14-4.98-4.12-18.97-4.46-30.11l0.67-0.32
						C214.26,131.16,215.23,150.62,218.84,159.18z"/>
					<path class="st23" d="M241.58,118.38c-1.56,1.8-4.23,4.71-8.71,9.28c-9.44,9.57-16.55,6.56-20.38,12.17s-0.14,10.12-5.46,12.58
						c-3.64,1.67-5.74,4.69-6.72,6.43l-7.92-0.15l-2.6-18.46l23.69-11.19l0.67-0.32l5.23-2.47l7.95-3.76l13.79-6.51L241.58,118.38z"
						/>
					<polygon class="st24" points="192.62,136.41 198.27,161.02 189.52,161.02 184.6,139.88 					"/>
					<path class="st23" d="M212.4,158.82l-0.31,21.07l-2.48,0.22c-0.32-1.25-1.13-4.48-1.13-5.86c0-1.73,0.36-4.2-1.64-9.21
						c-1.08-2.69-1.52-4.89-1.71-6.35L212.4,158.82z"/>
				</g>
			</g>
			<path class="st16" d="M212.13,163.3c0,0-3.19-0.09-3.92,3.74s2.46,6.56,4.1,5.83C213.95,172.15,215.77,163.3,212.13,163.3z"/>
		</g>
		<g>
			<polygon class="st27" points="421.07,121.87 277.11,121.87 277.11,177.11 277.12,177.11 277.03,189.95 288.32,177.11 
				421.07,177.11 			"/>
			
				<ellipse transform="matrix(0.9256 -0.3785 0.3785 0.9256 -33.9612 126.9553)" class="st6" cx="305.96" cy="149.87" rx="17.89" ry="17.89"/>
			<polygon class="st0" points="302.31,142.64 302.5,156.49 313.27,148.79 			"/>
			<rect x="327.5" y="147.4" class="st0" width="82.06" height="4.18"/>
			<rect x="327.5" y="147.24" class="st6" width="38.27" height="4.34"/>
		</g>
		<g>
			
				<ellipse transform="matrix(0.2595 -0.9657 0.9657 0.2595 27.5518 522.3652)" class="st14" cx="354.41" cy="243.22" rx="20.3" ry="20.3"/>
			<path class="st0" d="M352.33,241.3c0,0-7.07-3.37-8.08,0.84c-1.01,4.21,2.19,7.4,6.73,8.41c4.54,1.01,9.59,0.84,9.59,0.84
				s2.86-10.77,1.18-14.81s-4.71-4.38-6.73-3.37C353.01,234.23,352.33,241.3,352.33,241.3z"/>
		</g>
		<g>
			<ellipse class="st27" cx="198.43" cy="91.95" rx="15.39" ry="15.39"/>
			<rect x="193.18" y="86.65" class="st0" width="3.72" height="10.77"/>
			<rect x="199.71" y="86.65" class="st0" width="3.72" height="10.77"/>
		</g>
		<g>
			<path class="st14" d="M388.66,202.47v16.01c0,2.45,1.99,4.44,4.44,4.44h26.16l7.1,6.39l0.12-6.39v-20.45
				c0-2.45-1.99-4.44-4.44-4.44H393.1C390.65,198.03,388.66,200.02,388.66,202.47z"/>
			<path class="st0" d="M400.95,210.12c0,1.13-0.92,2.05-2.05,2.05s-2.05-0.92-2.05-2.05s0.92-2.05,2.05-2.05
				S400.95,208.98,400.95,210.12z"/>
			<path class="st0" d="M409.8,210.15c0,1.13-0.92,2.05-2.05,2.05s-2.05-0.92-2.05-2.05s0.92-2.05,2.05-2.05
				S409.8,209.02,409.8,210.15z"/>
			<path class="st0" d="M418.31,210.15c0,1.13-0.92,2.05-2.05,2.05s-2.05-0.92-2.05-2.05s0.92-2.05,2.05-2.05
				S418.31,209.02,418.31,210.15z"/>
		</g>
		<g>
			<path class="st14" d="M120.81,134.93v16.01c0,2.45-1.99,4.44-4.44,4.44H90.21l-7.1,6.39L83,155.38v-20.45
				c0-2.45,1.99-4.44,4.44-4.44h28.93C118.82,130.49,120.81,132.48,120.81,134.93z"/>
			<path class="st0" d="M108.52,142.58c0,1.13,0.92,2.05,2.05,2.05s2.05-0.92,2.05-2.05s-0.92-2.05-2.05-2.05
				S108.52,141.44,108.52,142.58z"/>
			<path class="st0" d="M99.66,142.61c0,1.13,0.92,2.05,2.05,2.05s2.05-0.92,2.05-2.05s-0.92-2.05-2.05-2.05
				S99.66,141.48,99.66,142.61z"/>
			<path class="st0" d="M91.16,142.61c0,1.13,0.92,2.05,2.05,2.05c1.13,0,2.05-0.92,2.05-2.05s-0.92-2.05-2.05-2.05
				C92.07,140.56,91.16,141.48,91.16,142.61z"/>
		</g>
		<g>
			<path class="st14" d="M222.93,276.58v16.01c0,2.45-1.99,4.44-4.44,4.44h-26.16l-7.1,6.39l-0.12-6.39v-20.45
				c0-2.45,1.99-4.44,4.44-4.44h28.93C220.94,272.14,222.93,274.12,222.93,276.58z"/>
			<path class="st0" d="M210.64,284.22c0,1.13,0.92,2.05,2.05,2.05s2.05-0.92,2.05-2.05s-0.92-2.05-2.05-2.05
				S210.64,283.09,210.64,284.22z"/>
			<path class="st0" d="M201.79,284.26c0,1.13,0.92,2.05,2.05,2.05s2.05-0.92,2.05-2.05s-0.92-2.05-2.05-2.05
				S201.79,283.12,201.79,284.26z"/>
			<path class="st0" d="M193.28,284.26c0,1.13,0.92,2.05,2.05,2.05s2.05-0.92,2.05-2.05s-0.92-2.05-2.05-2.05
				S193.28,283.13,193.28,284.26z"/>
		</g>
		<g>
			<path class="st2" d="M182.2,130.67c0,0.08,0,0.14,0,0.14S182.2,130.75,182.2,130.67s0-0.14,0-0.14S182.2,130.59,182.2,130.67z"/>
			
				<rect x="364.04" y="203.43" transform="matrix(0.7071 -0.7071 0.7071 0.7071 -38.739 320.6528)" class="st0" width="7.31" height="7.31"/>
			
				<rect x="177.45" y="259.15" transform="matrix(0.7071 -0.7071 0.7071 0.7071 -132.7859 205.0346)" class="st0" width="7.31" height="7.31"/>
			
				<rect x="163.83" y="79.32" transform="matrix(0.7071 -0.7071 0.7071 0.7071 -9.614 142.7324)" class="st0" width="7.31" height="7.31"/>
			
				<rect x="357.05" y="86.73" transform="matrix(0.7071 -0.7071 0.7071 0.7071 41.7346 281.5288)" class="st0" width="7.31" height="7.31"/>
			
				<rect x="275.84" y="62.18" transform="matrix(0.7071 -0.7071 0.7071 0.7071 35.3129 216.9142)" class="st0" width="7.31" height="7.31"/>
			
				<rect x="412.54" y="278.32" transform="matrix(0.7071 -0.7071 0.7071 0.7071 -77.4884 376.8818)" class="st0" width="7.31" height="7.31"/>
			
				<rect x="83.53" y="319.03" transform="matrix(0.7071 -0.7071 0.7071 0.7071 -202.6353 156.1615)" class="st0" width="7.31" height="7.31"/>
			
				<rect x="85.94" y="203.72" transform="matrix(0.7071 -0.7071 0.7071 0.7071 -120.3918 124.0907)" class="st0" width="7.31" height="7.31"/>
			<g>
				<path class="st24" d="M90.31,256.85"/>
				<path class="st24" d="M83.51,258.93"/>
			</g>
			<g>
				<path class="st27" d="M389.18,107.12c0,1.77,1.43,3.2,3.2,3.2c1.77,0,3.2-1.43,3.2-3.2s-1.43-3.2-3.2-3.2
					C390.61,103.92,389.18,105.35,389.18,107.12z"/>
				<path class="st27" d="M375.36,107.17c0,1.77,1.43,3.2,3.2,3.2c1.77,0,3.2-1.43,3.2-3.2s-1.43-3.2-3.2-3.2
					C376.79,103.97,375.36,105.4,375.36,107.17z"/>
				<path class="st27" d="M362.09,107.17c0,1.77,1.43,3.2,3.2,3.2c1.77,0,3.2-1.43,3.2-3.2s-1.43-3.2-3.2-3.2
					C363.52,103.98,362.09,105.41,362.09,107.17z"/>
			</g>
			<g>
				<path class="st27" d="M417.55,294.33c0,1.77,1.43,3.2,3.2,3.2c1.77,0,3.2-1.43,3.2-3.2c0-1.77-1.43-3.2-3.2-3.2
					C418.98,291.13,417.55,292.56,417.55,294.33z"/>
				<path class="st27" d="M403.73,294.38c0,1.77,1.43,3.2,3.2,3.2c1.77,0,3.2-1.43,3.2-3.2c0-1.77-1.43-3.2-3.2-3.2
					S403.73,292.62,403.73,294.38z"/>
				<path class="st27" d="M390.46,294.39c0,1.77,1.43,3.2,3.2,3.2c1.77,0,3.2-1.43,3.2-3.2c0-1.77-1.43-3.2-3.2-3.2
					C391.89,291.19,390.46,292.62,390.46,294.39z"/>
			</g>
			<g>
				<path class="st27" d="M144.64,104.51c0,1.77,1.43,3.2,3.2,3.2s3.2-1.43,3.2-3.2s-1.43-3.2-3.2-3.2
					C146.07,101.31,144.64,102.74,144.64,104.51z"/>
				<path class="st27" d="M130.82,104.56c0,1.77,1.43,3.2,3.2,3.2s3.2-1.43,3.2-3.2s-1.43-3.2-3.2-3.2
					C132.26,101.36,130.82,102.79,130.82,104.56z"/>
				<path class="st27" d="M117.55,104.56c0,1.77,1.43,3.2,3.2,3.2s3.2-1.43,3.2-3.2s-1.43-3.2-3.2-3.2S117.55,102.79,117.55,104.56z
					"/>
			</g>
		</g>
	</g>
</g>
</svg>
